/* XPM */
static char * icon16_03_xpm[] = {
"16 16 3 1",
" 	c None",
".	c #FB9129",
"+	c #000000",
"                ",
"                ",
"           ..   ",
"         .....  ",
"        ...+..+ ",
".....   ..++..+ ",
"  ...........++ ",
"   +........++  ",
"     ++.......  ",
"      ......... ",
"     ...++..+..+",
"    ...++ .....+",
"   ...++   +..++",
"  ..+++      ++ ",
" ..++           ",
"                "};
