/* XPM */
static char * icon16_02_xpm[] = {
"16 16 2 1",
" 	c None",
".	c #000000",
"                ",
"                ",
"           ..   ",
"         .....  ",
"        ... ..  ",
" ....   ..  ..  ",
"  ...........   ",
"    ........    ",
"       .......  ",
"      ......... ",
"     ...  .. .. ",
"    ...   ..... ",
"   ...      ..  ",
"  ..            ",
"                ",
"                "};
