<?xml version="1.0" encoding="UTF-8" standalone="no"?>
<!-- Created with Inkscape (http://www.inkscape.org/) -->
<svg
   xmlns:dc="http://purl.org/dc/elements/1.1/"
   xmlns:cc="http://creativecommons.org/ns#"
   xmlns:rdf="http://www.w3.org/1999/02/22-rdf-syntax-ns#"
   xmlns:svg="http://www.w3.org/2000/svg"
   xmlns="http://www.w3.org/2000/svg"
   xmlns:sodipodi="http://sodipodi.sourceforge.net/DTD/sodipodi-0.dtd"
   xmlns:inkscape="http://www.inkscape.org/namespaces/inkscape"
   width="744.09448819"
   height="1052.3622047"
   id="svg2"
   sodipodi:version="0.32"
   inkscape:version="0.46"
   sodipodi:docname="mouse01.svg"
   inkscape:output_extension="org.inkscape.output.svg.inkscape">
  <defs
     id="defs4">
    <inkscape:perspective
       sodipodi:type="inkscape:persp3d"
       inkscape:vp_x="0 : 526.18109 : 1"
       inkscape:vp_y="0 : 1000 : 0"
       inkscape:vp_z="744.09448 : 526.18109 : 1"
       inkscape:persp3d-origin="372.04724 : 350.78739 : 1"
       id="perspective10" />
  </defs>
  <sodipodi:namedview
     id="base"
     pagecolor="#ffffff"
     bordercolor="#666666"
     borderopacity="1.0"
     gridtolerance="10000"
     guidetolerance="10"
     objecttolerance="10"
     inkscape:pageopacity="0.0"
     inkscape:pageshadow="2"
     inkscape:zoom="4.7799167"
     inkscape:cx="520.93029"
     inkscape:cy="417.24891"
     inkscape:document-units="px"
     inkscape:current-layer="layer1"
     showgrid="false"
     inkscape:window-width="1280"
     inkscape:window-height="750"
     inkscape:window-x="-8"
     inkscape:window-y="-8" />
  <metadata
     id="metadata7">
    <rdf:RDF>
      <cc:Work
         rdf:about="">
        <dc:format>image/svg+xml</dc:format>
        <dc:type
           rdf:resource="http://purl.org/dc/dcmitype/StillImage" />
      </cc:Work>
    </rdf:RDF>
  </metadata>
  <g
     inkscape:label="Layer 1"
     inkscape:groupmode="layer"
     id="layer1">
    <rect
       style="fill:#ffffff;fill-opacity:0;stroke:none;stroke-width:1.10000002000000000;stroke-linecap:round;stroke-linejoin:round;stroke-miterlimit:4;stroke-dasharray:none;stroke-opacity:1"
       id="navigation4"
       width="142.26189"
       height="93.516273"
       x="467.58136"
       y="595.65967"
       inkscape:export-xdpi="331.92999"
       inkscape:export-ydpi="331.92999" />
    <path
       id="path3172"
       style="fill:none;fill-rule:evenodd;stroke:#000000;stroke-width:1px;stroke-linecap:butt;stroke-linejoin:miter;stroke-opacity:1"
       d="M 359.20863,396.90098 L 359.20863,381.16828 L 365.01763,381.16828 L 353.14812,369.42926 L 341.27861,381.16828 L 347.08761,381.16828 L 347.08761,396.90098"
       sodipodi:nodetypes="ccccccc" />
    <g
       id="g3165">
      <path
         sodipodi:nodetypes="ccccz"
         id="path2383"
         d="M 224.61458,388.6842 C 231.67401,399.61257 243.27732,389.93968 273.50697,408.28957 C 286.33862,403.06381 291.01863,396.99359 287.30334,387.95808 C 269.93993,358.94263 255.77647,360.64662 241.55748,361.81759 C 224.86558,368.42726 217.55514,377.75583 224.61458,388.6842 z"
         style="fill:#ffffff;fill-rule:evenodd;stroke:#000000;stroke-width:1px;stroke-linecap:butt;stroke-linejoin:miter;stroke-opacity:1;fill-opacity:1" />
      <path
         sodipodi:nodetypes="cc"
         id="path2385"
         d="M 232.11787,384.56951 C 254.40501,383.03503 263.7751,389.85289 269.15023,400.3022"
         style="fill:none;fill-rule:evenodd;stroke:#000000;stroke-width:1px;stroke-linecap:butt;stroke-linejoin:miter;stroke-opacity:1" />
      <path
         sodipodi:nodetypes="ccc"
         id="path2387"
         d="M 260.43672,362.54372 C 258.21118,370.80664 247.0153,376.63434 239.13707,379.24458 C 231.34353,378.9681 225.42577,378.6138 221.95212,381.42296"
         style="fill:none;fill-rule:evenodd;stroke:#000000;stroke-width:1px;stroke-linecap:butt;stroke-linejoin:miter;stroke-opacity:1" />
      <path
         sodipodi:nodetypes="cc"
         id="path2389"
         d="M 225.82479,371.49924 C 236.06908,365.55968 246.48067,368.91848 254.38569,370.77313"
         style="fill:none;fill-rule:evenodd;stroke:#000000;stroke-width:1px;stroke-linecap:butt;stroke-linejoin:miter;stroke-opacity:1" />
      <path
         sodipodi:nodetypes="csc"
         id="path2393"
         d="M 228.48724,368.83679 C 222.51688,370.67264 213.78127,372.88774 212.27046,367.62658 C 210.19791,360.40925 201.01533,364.03875 189.51855,360.60737"
         style="fill:none;fill-rule:evenodd;stroke:#000000;stroke-width:1px;stroke-linecap:butt;stroke-linejoin:miter;stroke-opacity:1" />
    </g>
    <path
       sodipodi:nodetypes="ccccccc"
       d="M 365.41226,415.22563 L 381.14496,415.22563 L 381.14496,421.03463 L 392.88398,409.16512 L 381.14496,397.29561 L 381.14496,403.10461 L 365.41226,403.10461"
       style="fill:none;fill-rule:evenodd;stroke:#000000;stroke-width:1px;stroke-linecap:butt;stroke-linejoin:miter;stroke-opacity:1"
       id="path3177" />
    <path
       id="path3179"
       style="fill:none;fill-rule:evenodd;stroke:#000000;stroke-width:1px;stroke-linecap:butt;stroke-linejoin:miter;stroke-opacity:1"
       d="M 340.88398,415.22563 L 325.15128,415.22563 L 325.15128,421.03463 L 313.41226,409.16512 L 325.15128,397.29561 L 325.15128,403.10461 L 340.88398,403.10461"
       sodipodi:nodetypes="ccccccc" />
    <path
       sodipodi:nodetypes="ccccccc"
       d="M 359.20863,421.42926 L 359.20863,437.16196 L 365.01763,437.16196 L 353.14812,448.90098 L 341.27861,437.16196 L 347.08761,437.16196 L 347.08761,421.42926"
       style="fill:none;fill-rule:evenodd;stroke:#000000;stroke-width:1px;stroke-linecap:butt;stroke-linejoin:miter;stroke-opacity:1"
       id="path3181" />
    <path
       id="path3211"
       style="fill:#b3baff;fill-rule:evenodd;stroke:#000000;stroke-width:0.80000000000000004;stroke-linecap:butt;stroke-linejoin:miter;stroke-opacity:1;stroke-miterlimit:4;stroke-dasharray:none;fill-opacity:1"
       d="M 527.41991,410.88073 L 539.54093,410.88073 L 555.50956,387.28168 L 561.31856,387.28168 L 561.36412,369.67315 L 537.57954,387.28168 L 543.38854,387.28168 L 527.41991,410.88073 z"
       sodipodi:nodetypes="cccccccc" />
    <path
       sodipodi:nodetypes="cccccccc"
       d="M 558.93151,409.00622 L 550.72965,421.12724 L 574.3287,421.12724 L 570.39796,426.93624 L 596.03816,415.06673 L 586.4613,403.19722 L 582.53056,409.00622 L 558.93151,409.00622 z"
       style="fill:#b3baff;fill-rule:evenodd;stroke:#000000;stroke-width:0.80000000000000004;stroke-linecap:butt;stroke-linejoin:miter;stroke-opacity:1;stroke-miterlimit:4;stroke-dasharray:none;fill-opacity:1"
       id="path3213" />
    <path
       id="path3215"
       style="fill:#b3baff;fill-rule:evenodd;stroke:#000000;stroke-width:0.80000000000000004;stroke-linecap:butt;stroke-linejoin:miter;stroke-opacity:1;stroke-miterlimit:4;stroke-dasharray:none;fill-opacity:1"
       d="M 516.1896,408.52213 L 507.98774,420.64315 L 484.38869,420.64315 L 480.45795,426.45215 L 470.88109,414.58264 L 496.52129,402.71313 L 492.59055,408.52213 L 516.1896,408.52213 z"
       sodipodi:nodetypes="cccccccc" />
    <path
       sodipodi:nodetypes="cccccccc"
       d="M 527.37832,415.62211 L 539.49934,415.62211 L 523.53071,439.22116 L 529.33971,439.22116 L 505.55513,456.82969 L 505.60069,439.22116 L 511.40969,439.22116 L 527.37832,415.62211 z"
       style="fill:#b3baff;fill-rule:evenodd;stroke:#000000;stroke-width:0.80000000000000004;stroke-linecap:butt;stroke-linejoin:miter;stroke-opacity:1;stroke-miterlimit:4;stroke-dasharray:none;fill-opacity:1"
       id="path3217" />
    <g
       id="g3191"
       transform="translate(277.72992,28.923967)">
      <path
         sodipodi:nodetypes="ccccz"
         id="path3193"
         d="M 224.61458,388.6842 C 231.67401,399.61257 243.27732,389.93968 273.50697,408.28957 C 286.33862,403.06381 291.01863,396.99359 287.30334,387.95808 C 269.93993,358.94263 255.77647,360.64662 241.55748,361.81759 C 224.86558,368.42726 217.55514,377.75583 224.61458,388.6842 z"
         style="fill:#ffffff;fill-opacity:1;fill-rule:evenodd;stroke:#000000;stroke-width:1px;stroke-linecap:butt;stroke-linejoin:miter;stroke-opacity:1" />
      <path
         sodipodi:nodetypes="cc"
         id="path3195"
         d="M 232.11787,384.56951 C 254.40501,383.03503 263.7751,389.85289 269.15023,400.3022"
         style="fill:none;fill-rule:evenodd;stroke:#000000;stroke-width:1px;stroke-linecap:butt;stroke-linejoin:miter;stroke-opacity:1" />
      <path
         sodipodi:nodetypes="ccc"
         id="path3197"
         d="M 260.43672,362.54372 C 258.21118,370.80664 247.0153,376.63434 239.13707,379.24458 C 231.34353,378.9681 225.42577,378.6138 221.95212,381.42296"
         style="fill:none;fill-rule:evenodd;stroke:#000000;stroke-width:1px;stroke-linecap:butt;stroke-linejoin:miter;stroke-opacity:1" />
      <path
         sodipodi:nodetypes="cc"
         id="path3199"
         d="M 225.82479,371.49924 C 236.06908,365.55968 246.48067,368.91848 254.38569,370.77313"
         style="fill:none;fill-rule:evenodd;stroke:#000000;stroke-width:1px;stroke-linecap:butt;stroke-linejoin:miter;stroke-opacity:1" />
      <path
         sodipodi:nodetypes="csc"
         id="path3201"
         d="M 228.48724,368.83679 C 222.51688,370.67264 213.78127,372.88774 212.27046,367.62658 C 210.19791,360.40925 201.01533,364.03875 189.51855,360.60737"
         style="fill:none;fill-rule:evenodd;stroke:#000000;stroke-width:1px;stroke-linecap:butt;stroke-linejoin:miter;stroke-opacity:1" />
    </g>
    <path
       id="path3203"
       style="fill:none;fill-rule:evenodd;stroke:#000000;stroke-width:1.22474492px;stroke-linecap:butt;stroke-linejoin:miter;stroke-opacity:1"
       d="M 416.07893,495.83732 L 416.07893,472.23827 L 421.88793,472.23827 L 410.01842,454.62974 L 398.14891,472.23827 L 403.95791,472.23827 L 403.95791,495.83732"
       sodipodi:nodetypes="ccccccc" />
    <path
       sodipodi:nodetypes="ccccccc"
       d="M 415.41463,507.29404 L 439.01368,507.29404 L 439.01368,513.10304 L 456.62221,501.23353 L 439.01368,489.36402 L 439.01368,495.17302 L 415.41463,495.17302"
       style="fill:none;fill-rule:evenodd;stroke:#000000;stroke-width:1.22474492px;stroke-linecap:butt;stroke-linejoin:miter;stroke-opacity:1"
       id="path3205" />
    <path
       id="path3207"
       style="fill:none;fill-rule:evenodd;stroke:#000000;stroke-width:1.22474492px;stroke-linecap:butt;stroke-linejoin:miter;stroke-opacity:1"
       d="M 404.62221,507.29404 L 381.02316,507.29404 L 381.02316,513.10304 L 363.41463,501.23353 L 381.02316,489.36402 L 381.02316,495.17302 L 404.62221,495.17302"
       sodipodi:nodetypes="ccccccc" />
    <path
       sodipodi:nodetypes="ccccccc"
       d="M 416.07893,506.62974 L 416.07893,530.22879 L 421.88793,530.22879 L 410.01842,547.83732 L 398.14891,530.22879 L 403.95791,530.22879 L 403.95791,506.62974"
       style="fill:none;fill-rule:evenodd;stroke:#000000;stroke-width:1.22474492px;stroke-linecap:butt;stroke-linejoin:miter;stroke-opacity:1"
       id="path3209" />
    <path
       sodipodi:nodetypes="cscccccc"
       d="M 508.83462,372.29734 L 518.87389,372.29734 L 518.87389,389.26444 L 523.6852,389.26444 L 513.85425,401.92451 L 504.02331,389.26444 L 508.83462,389.26444 L 508.83462,372.29734 z"
       style="fill:#b3baff;fill-opacity:1;fill-rule:evenodd;stroke:#000000;stroke-width:1.10000000000000010;stroke-linecap:butt;stroke-linejoin:miter;stroke-opacity:1;stroke-miterlimit:4;stroke-dasharray:none"
       id="path3219" />
    <path
       id="path3221"
       style="fill:#b3baff;fill-opacity:1;fill-rule:evenodd;stroke:#000000;stroke-width:0.80000001;stroke-linecap:butt;stroke-linejoin:miter;stroke-miterlimit:4;stroke-dasharray:none;stroke-opacity:1"
       d="M 530.73847,640.94124 L 542.85949,640.94124 L 558.82812,617.34219 L 564.63712,617.34219 L 564.68268,599.73366 L 540.8981,617.34219 L 546.7071,617.34219 L 530.73847,640.94124 z"
       sodipodi:nodetypes="cccccccc" />
    <path
       sodipodi:nodetypes="cccccccc"
       d="M 562.25007,639.06673 L 554.04821,651.18775 L 577.64726,651.18775 L 573.71652,656.99675 L 599.35672,645.12724 L 589.77986,633.25773 L 585.84912,639.06673 L 562.25007,639.06673 z"
       style="fill:#b3baff;fill-opacity:1;fill-rule:evenodd;stroke:#000000;stroke-width:0.80000001;stroke-linecap:butt;stroke-linejoin:miter;stroke-miterlimit:4;stroke-dasharray:none;stroke-opacity:1"
       id="path3223" />
    <path
       id="path3225"
       style="fill:#b3baff;fill-opacity:1;fill-rule:evenodd;stroke:#000000;stroke-width:0.80000001;stroke-linecap:butt;stroke-linejoin:miter;stroke-miterlimit:4;stroke-dasharray:none;stroke-opacity:1"
       d="M 519.50816,638.58264 L 511.3063,650.70366 L 487.70725,650.70366 L 483.77651,656.51266 L 474.19965,644.64315 L 499.83985,632.77364 L 495.90911,638.58264 L 519.50816,638.58264 z"
       sodipodi:nodetypes="cccccccc" />
    <path
       sodipodi:nodetypes="cccccccc"
       d="M 530.69688,645.68262 L 542.8179,645.68262 L 526.84927,669.28167 L 532.65827,669.28167 L 508.87369,686.8902 L 508.91925,669.28167 L 514.72825,669.28167 L 530.69688,645.68262 z"
       style="fill:#b3baff;fill-opacity:1;fill-rule:evenodd;stroke:#000000;stroke-width:0.80000001;stroke-linecap:butt;stroke-linejoin:miter;stroke-miterlimit:4;stroke-dasharray:none;stroke-opacity:1"
       id="path3227" />
    <path
       style="fill:#ffffff;fill-opacity:1;fill-rule:evenodd;stroke:#000000;stroke-width:1px;stroke-linecap:butt;stroke-linejoin:miter;stroke-opacity:1"
       d="M 505.66306,647.66868 C 512.72249,658.59705 524.3258,648.92416 554.55545,667.27405 C 567.3871,662.04829 572.06711,655.97807 568.35182,646.94256 C 550.98841,617.92711 536.82495,619.6311 522.60596,620.80207 C 505.91406,627.41174 498.60362,636.74031 505.66306,647.66868 z"
       id="path3231"
       sodipodi:nodetypes="ccccz" />
    <path
       style="fill:none;fill-rule:evenodd;stroke:#000000;stroke-width:1px;stroke-linecap:butt;stroke-linejoin:miter;stroke-opacity:1"
       d="M 513.16635,643.55399 C 535.45349,642.01951 544.82358,648.83737 550.19871,659.28668"
       id="path3233"
       sodipodi:nodetypes="cc" />
    <path
       style="fill:none;fill-rule:evenodd;stroke:#000000;stroke-width:1px;stroke-linecap:butt;stroke-linejoin:miter;stroke-opacity:1"
       d="M 541.4852,621.5282 C 539.25966,629.79112 528.06378,635.61882 520.18555,638.22906 C 512.39201,637.95258 506.47425,637.59828 503.0006,640.40744"
       id="path3235"
       sodipodi:nodetypes="ccc" />
    <path
       style="fill:none;fill-rule:evenodd;stroke:#000000;stroke-width:1px;stroke-linecap:butt;stroke-linejoin:miter;stroke-opacity:1"
       d="M 506.87327,630.48372 C 517.11756,624.54416 527.52915,627.90296 535.43417,629.75761"
       id="path3237"
       sodipodi:nodetypes="cc" />
    <path
       style="fill:none;fill-rule:evenodd;stroke:#000000;stroke-width:1px;stroke-linecap:butt;stroke-linejoin:miter;stroke-opacity:1"
       d="M 509.53572,627.82127 C 503.56536,629.65712 494.82975,631.87222 493.31894,626.61106 C 491.24639,619.39373 482.06381,623.02323 470.56703,619.59185"
       id="path3239"
       sodipodi:nodetypes="csc" />
    <path
       style="fill:#8a95ff;fill-opacity:1;fill-rule:evenodd;stroke:#000000;stroke-width:1px;stroke-linecap:butt;stroke-linejoin:miter;stroke-opacity:1"
       d="M 528.16039,628.07328 L 535.30102,629.96391 C 530.87917,633.90818 524.9413,636.68711 520.19164,638.26078 C 514.49986,638.05886 509.81732,637.78315 506.34789,638.76078 L 503.03539,640.41703 C 502.7845,636.87477 504.14299,633.55146 506.92602,630.49515 C 514.26064,626.26304 521.65103,626.75949 528.16039,628.07328"
       id="path3248"
       sodipodi:nodetypes="ccccccc" />
    <path
       sodipodi:nodetypes="cscccccc"
       d="M 512.15318,602.35785 L 522.19245,602.35785 L 522.19245,619.32495 L 527.00376,619.32495 L 517.17281,631.98502 L 507.34187,619.32495 L 512.15318,619.32495 L 512.15318,602.35785 z"
       style="fill:#5060ff;fill-opacity:1;fill-rule:evenodd;stroke:#000000;stroke-width:1.10000002000000000;stroke-linecap:butt;stroke-linejoin:miter;stroke-miterlimit:4;stroke-dasharray:none;stroke-opacity:1"
       id="path3241" />
  </g>
</svg>
